<svg height="512" viewBox="0 0 44 58" width="512" xmlns="http://www.w3.org/2000/svg"><g id="037---Cook-Book" fill="none"><path id="Shape" d="m40.5 2h3.5v54h-3.5c-1.1045695 0-2-.8954305-2-2v-50c0-1.1045695.8954305-2 2-2z" fill="#f29c1f" transform="matrix(-1 0 0 -1 82.5 58)"/><path id="Shape" d="m4 8v-6c0-1.1045695.8954305-2 2-2h32c1.1045695 0 2 .8954305 2 2v54c0 1.1045695-.8954305 2-2 2h-32c-1.1045695 0-2-.8954305-2-2z" fill="#f0c419"/><path id="Shape" d="m6 8v-6c-.0569368-1.04248831.73794523-1.93561419 1.78-2h28.44c1.0420548.06438581 1.8369368.95751169 1.78 2v54c.0569368 1.0424883-.7379452 1.9356142-1.78 2h-28.44c-1.04205477-.0643858-1.8369368-.9575117-1.78-2z" fill="#f3d55b"/><path id="Shape" d="m34 10c-1.1045695 0-2-.8954305-2-2v-8h4v8c0 1.1045695-.8954305 2-2 2z" fill="#e64c3c"/><path id="Shape" d="m29.45 22.22c-.8882574-.2251604-1.6248989-.8439392-2-1.68-.9696785-2.1512726-3.110286-3.5344169-5.47-3.5344169s-4.5003215 1.3831443-5.47 3.5344169c-.3751011.8360608-1.1117426 1.4548396-2 1.68-2.52.7-4.71 3-4.55 5.78.0940876 2.4428529 1.5842995 4.613971 3.83 5.58.7410618.2978627 1.2221005 1.0214085 1.21 1.82v7.6c0 1.1045695.8954305 2 2 2h10c1.1045695 0 2-.8954305 2-2v-7.6c-.0186849-.7887902.444643-1.5095225 1.17-1.82 2.2457005-.966029 3.7359124-3.1371471 3.83-5.58.16-2.76-2-5.08-4.55-5.78z" fill="#fff"/><path id="Shape" d="m19 42c-.5522847 0-1-.4477153-1-1v-4c0-.5522847.4477153-1 1-1s1 .4477153 1 1v4c0 .5522847-.4477153 1-1 1z" fill="#ecf0f1"/><path id="Shape" d="m25 42c-.5522847 0-1-.4477153-1-1v-4c0-.5522847.4477153-1 1-1s1 .4477153 1 1v4c0 .5522847-.4477153 1-1 1z" fill="#ecf0f1"/><g fill="#f29c1f"><path id="Shape" d="m29 50h-14c-.5522847 0-1-.4477153-1-1s.4477153-1 1-1h14c.5522847 0 1 .4477153 1 1s-.4477153 1-1 1z"/><path id="Shape" d="m25 54h-6c-.5522847 0-1-.4477153-1-1s.4477153-1 1-1h6c.5522847 0 1 .4477153 1 1s-.4477153 1-1 1z"/><path id="Shape" d="m20 9h-9c-.5522847 0-1-.44771525-1-1s.4477153-1 1-1h9c.5522847 0 1 .44771525 1 1s-.4477153 1-1 1z"/><path id="Shape" d="m15 13h-4c-.5522847 0-1-.4477153-1-1s.4477153-1 1-1h4c.5522847 0 1 .4477153 1 1s-.4477153 1-1 1z"/></g><path id="Shape" d="m15 41h14v2c0 1.1045695-.8954305 2-2 2h-10c-1.1045695 0-2-.8954305-2-2z" fill="#bdc3c7"/><path id="Shape" d="m4 15c-2.209139 0-4-1.790861-4-4s1.790861-4 4-4c3.81 0 5.1 5 3 5-.55228475 0-1-.4477153-1-1 0-1.1045695-.8954305-2-2-2s-2 .8954305-2 2 .8954305 2 2 2z" fill="#95a5a5"/><path id="Shape" d="m4 27c-2.209139 0-4-1.790861-4-4s1.790861-4 4-4c3.81 0 5.1 5 3 5-.55228475 0-1-.4477153-1-1 0-1.1045695-.8954305-2-2-2s-2 .8954305-2 2 .8954305 2 2 2z" fill="#95a5a5"/><path id="Shape" d="m4 39c-2.209139 0-4-1.790861-4-4s1.790861-4 4-4c3.81 0 5.1 5 3 5-.55228475 0-1-.4477153-1-1 0-1.1045695-.8954305-2-2-2s-2 .8954305-2 2 .8954305 2 2 2z" fill="#95a5a5"/><path id="Shape" d="m4 51c-2.209139 0-4-1.790861-4-4s1.790861-4 4-4c3.81 0 5.1 5 3 5-.55228475 0-1-.4477153-1-1 0-1.1045695-.8954305-2-2-2s-2 .8954305-2 2 .8954305 2 2 2z" fill="#95a5a5"/></g></svg>